<svg id="Layer_1" data-name="Layer 1" xmlns="http://www.w3.org/2000/svg" viewBox="0 0 921.07 335.83"><defs><style>.cls-1{fill:#fff;}</style></defs><path class="cls-1" d="M651,414.5c-7.1,28.59-13.82,57.23-21,85.77-.53,2-.63,4.21-2.73,5.41-17.4,17.56-34.64,35.27-52.24,52.72-12,11.93-24.49,23.44-36.21,34.63-3.26-69.79,28.27-125.45,78-173.38-19.66-.84-39.1-.79-56.76-11-17.82-10.35-28.7-26.12-36.05-44.88C464.74,415,445.35,477.67,469.37,553c-.42.15-.84.36-1.26.52q-14.91-15.37-29.91-30.69c-1.63-2.21-.89-4.63-.47-6.94,3.26-17.87,6.25-35.73,9.51-53.6.26-1.27.37-2.53.63-3.79.79-3.36-.63-4.73-4-4.68-8.67.06-17.34,0-26,0-6.57,0-13.13.16-19.7-.05-4.26-.16-6.1,1.68-6.63,5.78a70.19,70.19,0,0,1-2.15,11.83c-.47,1.1-1.1,1.52-1.63,1.57h-.21a4.51,4.51,0,0,1-2.31-1.41c-2.79-2.37-5.31-5.1-7.89-7.73-5.15-5.1-10.19-10.2-15.34-15.29-2.26-2.26-2.42-4.31-.05-6.57,9.19-8.89,17.71-18.56,27.48-26.86,3.94-3.31,7.31-7.2,11-10.72.58-.58,1.1-1.16,1.68-1.68a3.89,3.89,0,0,1,.84-.79,6.88,6.88,0,0,1,2.26-1.47c12.14-1.05,24.18-1.05,35.69,3.47,3.78,1.47,5.57.42,6.93-3.1,2.31-6,4.94-11.88,7.57-17.77,1.16-2.57.42-3.78-2-4.73a101.43,101.43,0,0,0-13-3.62c-2-.48-4.2-.48-5.62-2.32q43.66-42.88,87.29-85.77c1.84-1.78,2.84-1.68,4.57.06,4.84,4.94,9.94,9.61,14.88,14.4.57,2.57-1.58,3.62-2.95,5a46.91,46.91,0,0,0-6.62,8.2c-1.26,1.94-.94,3.52.53,5.2,5,5.63,9.09,5.31,13.4-.68,1.84-2.63,2.63-6.31,6.36-7.36,6,5.68,6.09,5.73,1.84,12.93-4,6.73-8.62,13.19-9.46,21.34-2.11,19.76,4.83,35.89,20.39,48.09,19,14.82,40.31,16.08,61.8,7.46,9.25-3.73,15.3-3.57,20.66,4.83a21.13,21.13,0,0,0,3.15,2.95C652.31,410.77,651.42,412.71,651,414.5Z" transform="translate(-79.93 -271)"/><path class="cls-1" d="M627.31,505.67q11.58-47.35,23.15-94.7a11.88,11.88,0,0,0,.18-1.9c2.61-10.23,5.35-20.44,7.77-30.72.74-3.17,1.91-4.35,5.37-4.27,11.41.27,22.83.2,34.25,0,2.94-.05,4.29.66,4.58,3.79,2.88,30.51,7.39,60.87,9,91.51.62,11.38,1.38,22.75,2.09,34.49,1.63-1.75,2-3.92,2.72-5.83,16.32-41.11,35.9-80.72,54.93-120.59,1.23-2.56,2.72-3.41,5.52-3.37,11.42.16,22.83.19,34.25,0,3.27-.05,4,.95,3.66,4-2.14,17.36-4.16,34.74-6.22,52.11q-4.11,34.66-8.24,69.32-3,25.35-5.89,50.69c-.25,2.26-1.27,3-3.43,2.93-8.84-.08-17.69-.16-26.53,0-3.51.07-3-2-2.73-4,1.67-13.21,3.31-26.43,5.09-39.63q5-37.2,10.26-74.36c1-7.28,2.33-14.52,2.9-22q-3.37,7.83-6.73,15.67c-17.11,40.09-36.95,78.89-55.41,118.34-1.3,2.78-2.9,3.68-5.85,3.57-5.78-.22-11.58-.29-17.36,0-3.44.19-4.82-.81-5.14-4.31-1.24-13.91-2.73-27.8-4.09-41.7q-2.61-26.58-5.18-53.18c-2.94-4.09-1.7-8.8-2-13.28.25-7.74-.12-15.48-.25-23.21-.19-.64-.81.34-.26,0,.68,3.47.08,6.86-.58,10.25-.58,3-1.45,5.92-1.92,8.93-2.07,9.86-3.33,19.91-7.2,29.33-3.65,10.12-5.14,20.78-7.58,31.19q-6.39,27.36-12.29,54.83c-.61,2.83-1.64,3.64-4.38,3.59q-12-.23-24.1,0c-2.91,0-3.85-.29-3-3.66C620.45,535,623.81,520.3,627.31,505.67Z" transform="translate(-79.93 -271)"/><path class="cls-1" d="M236.81,374.09c-22.91-3.79-45.77-1.58-68.58,1.31-2.89.37-3.1,2.36-3.47,4.36-1.37,7.73-2.79,15.45-4.1,23.18-8.57,48.45-17,96.91-25.7,145.37-.63,3.41.31,4.15,3.31,4.41,11.19,1,22.39,1.79,35.95,1.84,8.3.32,18.81-.79,29.27-2.73,27.12-5,49.88-17.14,65.48-40.63,15.14-22.65,22.34-48,22-75C290.52,400.15,272.65,380,236.81,374.09Zm-3,131.59c-12.09,15.61-28.91,21.66-48.3,21.5-4-.26-9.25.84-11.62-1.26-2.15-1.95.53-7.15,1.21-10.83,6.41-37,13-73.89,19.39-110.89.48-2.73,1.58-3.84,4.58-4.15,8.51-.79,17-1.11,25.38.47,16.19,3,27.43,14.14,29.27,31.43C256.68,458.86,250.53,484,233.82,505.68Z" transform="translate(-79.93 -271)"/><path class="cls-1" d="M356.69,435.47c-7.67,13.87-10.41,29-11.35,44.46a49.55,49.55,0,0,0,5,24.81c6.52,13.5,18.18,19.34,32.53,20.65,5.47.53,10.88-.37,16.29-1.1,3.16-.47,4.73-2.1,5.26-5.31,1.37-8.41,3-16.76,4.2-25.17l.16-.63a.44.44,0,0,0,.05-.27c.32-1.26.37-2.57.58-3.83,1.21-7.31,1.21-7.31-6.41-7.31-1.73,0-3.42,0-5.1.05a.76.76,0,0,0-.47,0c-.74,0-1.42,0-2.1.06a26.9,26.9,0,0,1-2.84,0c-6.41-.37-8.09-3.42-4.94-8.89a2.47,2.47,0,0,1,.26-.47c1.05-5.52,2.21-11,3.05-16.5.37-2.52,1.21-3.52,3.89-3.52q26,.24,52,0c4.1,0,3.31,2,2.89,4.57q-5.6,31-11,62c-.21,1.26-.21,2.58-.37,3.84-1.21,6.41-2.47,12.82-3.62,19.29-.37,2.15-.79,3.94-3.31,4.68-24.81,6.93-49.83,11.08-75.47,5.3-28.23-6.36-45.2-25.59-47.46-54.39-2.47-30.85,4.52-59.44,23.18-84.41,16.76-22.49,39.52-35.58,67.21-40.09,12-1.95,24-1,36.06-.85,6.88,1.32,13.77,2.63,20.39,5.15,2.57,1,3.41,2,2.05,4.84-3.37,7.2-6.47,14.56-9.51,22-1,2.47-2,3.05-4.58,1.89-12.35-5.68-25.43-5.52-38.57-4.52a19,19,0,0,1-2.42,1,20.32,20.32,0,0,1-3.89,1.16C379.6,408.09,365.89,418.7,356.69,435.47Z" transform="translate(-79.93 -271)"/><path class="cls-1" d="M959.34,546.26q-3.78-35.25-7.41-70.37-5-49.12-9.83-98.23c-.26-2.63-1.1-3.63-3.83-3.52-6.1.16-12.2.05-18.29.05s-12.25.11-18.34-.05c-2.42-.05-3.74.68-4.74,2.89q-39.57,86.24-79.25,172.33c-1.36,2.94-1.15,3.89,2.31,3.83,8.83-.15,17.66-.21,26.49,0,3.21.11,4.84-.78,6.1-3.83,5.57-13.3,11.61-26.39,17.18-39.68,1.32-2.95,2.89-3.94,6.1-3.89q19.78.24,39.52,0c3.26-.05,4.42.84,4.68,4.26,1,13.29,2.47,26.54,3.57,39.78.21,2.84,1.21,3.42,3.79,3.36,8.67-.15,17.34-.05,26-.05C960.18,553.14,960.08,553.14,959.34,546.26ZM914.72,480.2c-10.09-.27-20.18-.16-30.32-.11-2.16.05-3.42,0-2.16-2.79,10.78-24.22,21.29-48.56,30.48-73.47.11-.26.42-.42,1.27-1.15.57,24.8,2.94,48.87,5,72.94C919.35,479.2,918.45,480.3,914.72,480.2Z" transform="translate(-79.93 -271)"/><path class="cls-1" d="M522.2,367.74c4.42,30.86,18.54,48.86,57.67,66.94-2.53,2.95-5,5.77-7.39,8.64-24.22,28.8-38.28,61.95-42.47,99.33a291.33,291.33,0,0,0-1,55.79c.09,1.12.18,2.25.17,3.37,0,4.88-2.58,6.38-6.77,3.7s-7.42-6.67-10.46-10.58c-17.2-22.08-26.44-47.39-30.07-74.95-1.58-12-3.13-23.9-2.65-36,1.34-33.72,8.85-65.73,27.07-94.58C510.88,382.14,516.47,375.49,522.2,367.74Z" transform="translate(-79.93 -271)"/><path class="cls-1" d="M595.53,390.8a37.19,37.19,0,0,1-36-27.14,38.11,38.11,0,0,1,17.07-42.87c3-1.8,4.79-1.79,7.24,1.08,5.21,6.1,11,11.71,16.41,17.63a9.6,9.6,0,0,0,5.7,3.12c8,1.5,16,3.42,24,5,2.63.51,3.51,1.51,3.65,4.31C634.78,375.08,614.16,392.34,595.53,390.8Z" transform="translate(-79.93 -271)"/><path class="cls-1" d="M103,370.4c-.91,6-1.68,11.08-2.43,16.15-.35,2.37-1.67,3.23-4,2.9-4.44-.61-8.9-1.17-13.36-1.62-2.66-.28-3.58-1.48-3.13-4.16.87-5.22,1.63-10.45,2.22-15.7.28-2.56,1.6-3.32,3.85-3,4.45.55,8.9,1.18,13.35,1.75C102.26,367,103.39,368.56,103,370.4Z" transform="translate(-79.93 -271)"/><path class="cls-1" d="M108.28,387.59c.83-5.39,1.67-10.78,2.48-16.17.33-2.24,1.66-2.92,3.74-2.64,4.45.6,8.91,1.15,13.36,1.78,3,.41,4.11,2,3.5,5.06-1,4.87-1.87,9.77-2.57,14.69-.35,2.47-1.4,3.31-3.84,3-4.45-.63-8.91-1.19-13.38-1.57C108.82,391.47,107.86,390.19,108.28,387.59Z" transform="translate(-79.93 -271)"/><path class="cls-1" d="M106.06,497c-3.65-.39-7.63-.87-11.62-1.22-2.81-.24-4-1.47-3.48-4.4.82-5.21,1.47-10.45,2.11-15.69.3-2.54,1.85-3.21,4-2.92,4.6.59,9.2,1.22,13.78,1.92,2.23.35,3.36,1.62,3,4-.87,5.21-1.79,10.41-2.45,15.65C111,497.92,108.56,497.08,106.06,497Z" transform="translate(-79.93 -271)"/><path class="cls-1" d="M134.67,501c-4.43-.62-8.85-1.28-13.28-1.84-2.41-.31-3.19-1.36-2.74-3.89.94-5.18,1.7-10.4,2.21-15.64.26-2.61,1.47-3.3,3.74-3,4.75.63,9.5,1.24,14.23,1.95,2.24.34,3.32,1.6,2.9,4q-1.36,7.79-2.5,15.61C138.8,501.1,137,501.3,134.67,501Z" transform="translate(-79.93 -271)"/><path class="cls-1" d="M151,396.6a60.68,60.68,0,0,0-6.41-.9c-9.82-.45-7.82-1.34-7-9.17.37-3.49,1.29-6.94,1.5-10.44.21-3.33,1.83-4.07,4.71-3.64,4.27.65,8.55,1.29,12.84,1.81,2.69.33,3.53,1.78,3.14,4.3-.81,5.22-1.52,10.45-2.36,15.66C156.82,398,153.94,396.53,151,396.6Z" transform="translate(-79.93 -271)"/><path class="cls-1" d="M141.73,453.49c-3.38-.47-7.67-1.07-12-1.65-2.41-.32-3.23-1.54-2.77-4,1-5.2,1.95-10.42,2.54-15.68.31-2.69,1.59-3.23,3.81-2.93q7.16,1,14.3,2a2.74,2.74,0,0,1,2.51,3.44c-.85,5.55-1.85,11.07-2.7,16.62C147,454.65,144.61,453.58,141.73,453.49Z" transform="translate(-79.93 -271)"/><path class="cls-1" d="M125.69,545.12c-4.19-.59-8.62-1.3-13.07-1.81-2.44-.28-3.44-1.35-3-3.8.84-5.22,1.78-10.43,2.35-15.68.28-2.63,1.53-3.25,3.78-3,4.76.63,9.52,1.31,14.29,1.89,2,.24,2.89,1.4,2.62,3.26-.82,5.71-1.84,11.39-2.65,17.09C129.57,545.94,127.57,545,125.69,545.12Z" transform="translate(-79.93 -271)"/><path class="cls-1" d="M973.4,419.58c.7,2.44-.49,4.37-4.72,4.24a38.59,38.59,0,0,0-6.17.79c-7.53,1-7.54,1-8.57-6.6-.18-1.26-.19-2.55-.33-3.83-1.08-10-1.09-10,9.23-10.95,8.49-.75,8.48-.75,9.48,7.82C972.6,413.43,972.92,415.81,973.4,419.58Z" transform="translate(-79.93 -271)"/><path class="cls-1" d="M955.18,397c-3.21.7-3.82-.9-4-2.81-.62-4.91-1.09-9.85-1.83-14.74-.33-2.19.67-2.95,2.47-3.2,4.27-.6,8.55-1.2,12.83-1.69,2.29-.26,3.49.73,3.7,3.23.41,4.77,1,9.53,1.7,14.27.29,2-.21,3-2.28,3.3C963.29,395.9,958.86,396.51,955.18,397Z" transform="translate(-79.93 -271)"/><path class="cls-1" d="M996.52,399.54c1.22-.11,2.59.57,2.81,3.14.4,4.76.92,9.53,1.62,14.26.38,2.58-1.25,3-3,3.3-4.09.7-8.21,1.2-12.29,1.94-2.73.49-3.38-1.17-3.65-3.21-.64-4.91-1.09-9.84-1.85-14.72-.34-2.25.67-2.84,2.53-3.06C987,400.7,991.23,400.17,996.52,399.54Z" transform="translate(-79.93 -271)"/><path class="cls-1" d="M977.35,514.15c2.49-.31,3.5.86,3.67,3.26.25,3.52.63,7,1,10.54.78,6.56.81,6.56-5.85,7.41-12.34,1.59-12.34,1.59-13.72-10.74-1-8.74-1-8.72,8.18-9.58C972.91,514.83,975.12,514.45,977.35,514.15Z" transform="translate(-79.93 -271)"/><path class="cls-1" d="M679.55,438.39q.38,6.58.73,13.17l-12.22,12c1.14-10.13,4.11-19.89,6.13-29.84C677.6,433.43,678.63,435.84,679.55,438.39Z" transform="translate(-79.93 -271)"/><path class="cls-1" d="M408.82,492.91a48.53,48.53,0,0,0-10.93-11.09c-.58-.47-1.15-.89-1.78-1.31-8.94-.84-9.15-.84-8.36-7.52,0-.15.05-.31.05-.47-8-8-15.92-16.24-24.17-24-3-2.83-2.74-4.2.05-6.88C377.45,428.48,391,415,404.57,401.73a14.25,14.25,0,0,0-1.58.21c-17.34,2-31.48,10.14-41.78,24.28-14.51,19.81-18.92,42.52-16,66.54,1.26,10.61,6.1,20,15.24,26.33,12.77,8.82,27,8.88,41.57,5.93,1.84-.36,2.79-1.1,3.11-2.94,1.36-9.35,3.73-18.55,4.46-28C409.35,493.65,409.09,493.28,408.82,492.91Zm-.21.9c-1.2,8.41-2.83,16.76-4.2,25.17-.53,3.21-2.1,4.84-5.26,5.31-5.41.73-10.82,1.63-16.29,1.1-14.35-1.31-26-7.15-32.53-20.65a49.55,49.55,0,0,1-5-24.81c.94-15.45,3.68-30.59,11.35-44.46,9.2-16.77,22.91-27.38,41.57-31.58a20.32,20.32,0,0,0,3.89-1.16c-.58.52-1.1,1.1-1.68,1.68-3.73,3.52-7.1,7.41-11,10.72-9.77,8.3-18.29,18-27.48,26.86-2.37,2.26-2.21,4.31.05,6.57,5.15,5.09,10.19,10.19,15.34,15.29,2.58,2.63,5.1,5.36,7.89,7.73a4.51,4.51,0,0,0,2.31,1.41c-3.15,5.47-1.47,8.52,4.94,8.89a26.9,26.9,0,0,0,2.84,0c.68-.06,1.36-.06,2.1-.06,3.78,3.79,7.52,7.57,11.35,11.36Z" transform="translate(-79.93 -271)"/><path class="cls-1" d="M679.55,438.39l-5.36-4.65q1.88-10,3.74-20.07A111,111,0,0,1,679.55,438.39Z" transform="translate(-79.93 -271)"/><path class="cls-1" d="M412,482.46c-.84,3.83-1.63,7.72-2.42,11.61-.31-.32-.57-.58-.84-.89-3.83-3.79-7.57-7.57-11.35-11.36l-1.31-1.31c4.46-.05,8.93-.16,13.4-.21C410.87,480.3,412.61,479.93,412,482.46Z" transform="translate(-79.93 -271)"/><path class="cls-1" d="M552.25,311.51c-2.33,3.41-4.89,6.69-6.93,10.27s-4.52,4.11-7.91,2.48a23.05,23.05,0,0,1-4.16-2.31c-4.84-3.73-4.88-4.59-1.42-9.71,2.78-4.12,6.5-7.42,9.71-11.16,4.49-3.61,8.94-7.27,13.5-10.79,3.08-2.38,6-5.8,10.77-2.89-2.68-1.7-4.44-5.7-8.19-2.46-.58.49-1.13.16-1.6-.41C552.5,280.25,549,276,544.84,271c28.42,4.48,55.76,9,83.19,12.94,5.66.81,9.09,3.34,12.46,7.56,15.81,19.83,31.89,39.44,47.86,59.14,1.3,1.6,2.5,3.27,4.21,5.51L639.25,345c-10-2.1-20-4.39-30.1-6.3a13.75,13.75,0,0,1-8.06-4.58c-11-11.94-22.09-23.73-33.16-35.58-.52-.56-1-1.19-1.78-2.19,3.44-.38,6.3,1.7,9.84.18-3.41-2.56-7.25-2.85-10.65-4.14-.85-.32-1.35.6-1.79,1.29Q557.91,302.62,552.25,311.51Z" transform="translate(-79.93 -271)"/></svg>